<?xml version="1.0" encoding="utf-8"?>
<svg style="enable-background:new 0 0 1024 768;" x="0px" y="0px" width="253px" height="200px" viewBox="-30 -30 300 245" preserveAspectRatio="none" xmlns="http://www.w3.org/2000/svg" xmlns:bx="https://boxy-svg.com">
  <g id="domek" transform="matrix(1, 0, 0, 1, -356.5, -240.5)" bx:origin="0 0">
    <rect x="356.5" y="240.5" style="stroke:#FFFFFF;stroke-miterlimit:10;" width="84" height="190"/>
    <rect x="378" y="396" style="fill:#FFFFFF;" width="20" height="34"/>
    <rect x="378" y="361" style="fill:#FFFFFF;" width="17" height="17"/>
    <rect x="378" y="327" style="fill:#FFFFFF;" width="17" height="17"/>
    <rect x="378" y="292" style="fill:#FFFFFF;" width="17" height="17"/>
    <rect x="378" y="257" style="fill:#FFFFFF;" width="17" height="17"/>
  </g>
  <g id="klatka" transform="matrix(1, 0, 0, 1, -356.5, -240.5)" bx:origin="-0.31 -0.232">
    <rect x="414" y="276.334" style="stroke:#FFFFFF;stroke-miterlimit:10;" width="185.5" height="154.166"/>
    <g>
      <rect x="419" y="292" style="fill:#FFFFFF;" width="17" height="17"/>
      <rect x="419" y="327" style="fill:#FFFFFF;" width="17" height="17"/>
      <rect x="419" y="361" style="fill:#FFFFFF;" width="17" height="17"/>
      <rect x="419" y="396" style="fill:#FFFFFF;" width="17" height="17"/>
    </g>
    <g>
      <rect x="576" y="292" style="fill:#FFFFFF;" width="17" height="17"/>
      <rect x="576" y="327" style="fill:#FFFFFF;" width="17" height="17"/>
      <rect x="576" y="361" style="fill:#FFFFFF;" width="17" height="17"/>
      <rect x="576" y="396" style="fill:#FFFFFF;" width="17" height="17"/>
    </g>
    <path style="fill:#FFFFFF;stroke:#000000;stroke-miterlimit:10;" d="M571.5,409.372c0,8.907-5.949,16.128-13.287,16.128H453.787&#10;&#9;&#9;c-7.338,0-13.287-7.221-13.287-16.128V297.628c0-8.907,5.949-16.128,13.287-16.128h104.426c7.338,0,13.287,7.221,13.287,16.128&#10;&#9;&#9;V409.372z"/>
    <g>
      <path d="M475.542,331.535h-0.336l-0.392,12.432h-6.216c-0.392-2.576,0.168-5.487,0.168-8.176v-1.792&#10;&#9;&#9;&#9;c0.056-2.576,0.336-11.144,1.288-32.592c0.056-1.736,2.072-1.792,3.472-1.792h0.336c0.56,0,2.24,0,2.576,0.56v1.624&#10;&#9;&#9;&#9;c0,4.816-0.224,9.688-1.288,18.425c1.008-0.784,1.512-2.185,2.184-3.192c2.184-3.304,3.92-6.776,5.992-10.136&#10;&#9;&#9;&#9;c0.224-0.336,0.616-0.504,1.064-0.504c1.176,0,5.712,1.176,5.712,2.239c0,0.225,0,0.336-0.224,0.616&#10;&#9;&#9;&#9;c-0.784,0.952-1.792,2.072-2.464,3.192c-2.744,4.368-6.048,8.567-8.512,13.104v0.336c4.032,4.984,9.296,8.736,13.44,13.664&#10;&#9;&#9;&#9;c0,0.056,0.056,0.336,0.056,0.448c0,1.063-1.344,1.736-1.96,2.352l-1.96,1.792L475.542,331.535z"/>
      <path d="M495.758,310.367c0-0.952,0.056-5.656,0.056-6.608c0-0.056,0.224-0.504,0.336-0.56c1.792-0.28,3.92-0.336,5.768-0.336&#10;&#9;&#9;&#9;h0.448l0.168,0.336v31.584c0,0.672,0.168,2.408,0.168,2.464l0.168,0.336h0.672c2.576,0,5.376-0.616,7.84-1.231h0.28&#10;&#9;&#9;&#9;c1.568,0,1.176,4.703,1.176,5.6v0.784c-0.616,0.84-5.936,1.288-6.776,1.399c-0.504,0.112-4.76,0.616-5.32,0.729l-2.968,0.728&#10;&#9;&#9;&#9;c-0.112,0-0.784,0.057-1.008,0.057c-0.112,0-0.56-0.057-0.616-0.057l-0.168-0.392L495.758,310.367z"/>
      <path d="M516.309,346.991c0.281-3.809,0.561-7.896,1.681-30.576c0.56-10.584,3.36-15.231,9.856-15.231c0.392,0,0.84,0,1.287,0.056&#10;&#9;&#9;&#9;c5.881,0,7,6.552,7.168,11.144v0.28c0.057,1.232,0.225,4.088-0.279,33.096l-0.393,0.28h-2.24c-0.896,0-1.791,0.056-2.799-0.28&#10;&#9;&#9;&#9;c-0.057-0.56-0.113-3.191-0.841-14.056h-0.392c-2.016,0-4.088,0.168-6.832,0.168c-0.225,2.52-0.168,5.096,0.279,15.4&#10;&#9;&#9;&#9;c0,0-0.168,0.392-0.279,0.392h-6.049c-0.223,0-0.168-0.336-0.168-0.392V346.991z M523.365,326.831l0.111,0.28&#10;&#9;&#9;&#9;c0.057,0.056,1.961,0.111,5.992,0.168c0.168-0.057,0.168-0.28,0.168-0.448l0.672-10.976v-0.952c0-7.504-5.991-9.353-6.664-0.561&#10;&#9;&#9;&#9;c-0.279,3.584-0.336,5.32-0.336,9.24C523.309,324.255,523.365,326.551,523.365,326.831z"/>
      <path d="M473.526,376.783c-0.112-0.392-0.504-0.336-0.84-0.336c-1.232,0-2.408,0.336-3.696,0.336c-0.224,0-0.56-0.168-0.56-0.504&#10;&#9;&#9;&#9;v-6.832h18.256v7.616h-6.328l-0.168,0.28v3.527c0.504,10.192,1.232,20.496,1.232,30.744c0,0.56-0.112,1.008-0.672,1.176h-5.488&#10;&#9;&#9;&#9;c-0.392,0-0.56-0.111-0.672-0.504C474.534,400.415,473.806,388.6,473.526,376.783z"/>
      <path d="M497.157,398.735h-0.336l-0.392,12.432h-6.216c-0.392-2.576,0.168-5.487,0.168-8.176v-1.792&#10;&#9;&#9;&#9;c0.056-2.576,0.336-11.144,1.288-32.592c0.056-1.736,2.072-1.792,3.472-1.792h0.336c0.56,0,2.24,0,2.576,0.56v1.624&#10;&#9;&#9;&#9;c0,4.816-0.224,9.688-1.288,18.425c1.008-0.784,1.512-2.185,2.184-3.192c2.184-3.304,3.92-6.776,5.992-10.136&#10;&#9;&#9;&#9;c0.224-0.336,0.616-0.504,1.064-0.504c1.176,0,5.712,1.176,5.712,2.239c0,0.225,0,0.336-0.224,0.616&#10;&#9;&#9;&#9;c-0.784,0.952-1.792,2.072-2.464,3.192c-2.744,4.368-6.048,8.567-8.512,13.104v0.336c4.032,4.984,9.296,8.736,13.44,13.664&#10;&#9;&#9;&#9;c0,0.056,0.057,0.336,0.057,0.448c0,1.063-1.345,1.736-1.96,2.352l-1.96,1.792L497.157,398.735z"/>
      <path d="M515.637,414.191c0.28-3.809,0.561-7.896,1.68-30.576c0.561-10.584,3.36-15.231,9.856-15.231c0.392,0,0.84,0,1.288,0.056&#10;&#9;&#9;&#9;c5.88,0,7,6.552,7.168,11.144v0.28c0.056,1.232,0.224,4.088-0.28,33.096l-0.392,0.28h-2.24c-0.896,0-1.792,0.056-2.8-0.28&#10;&#9;&#9;&#9;c-0.056-0.56-0.112-3.191-0.841-14.056h-0.392c-2.016,0-4.088,0.168-6.831,0.168c-0.225,2.521-0.168,5.096,0.279,15.4&#10;&#9;&#9;&#9;c0,0-0.168,0.392-0.279,0.392h-6.049c-0.224,0-0.168-0.336-0.168-0.392V414.191z M522.693,394.031l0.111,0.28&#10;&#9;&#9;&#9;c0.057,0.056,1.96,0.112,5.992,0.168c0.168-0.056,0.168-0.28,0.168-0.448l0.672-10.976v-0.952c0-7.504-5.992-9.353-6.664-0.561&#10;&#9;&#9;&#9;c-0.279,3.584-0.336,5.32-0.336,9.24C522.637,391.455,522.693,393.751,522.693,394.031z"/>
    </g>
  </g>
</svg>